<svg xmlns="http://www.w3.org/2000/svg" xmlns:xlink="http://www.w3.org/1999/xlink" contentScriptType="text/ecmascript" width="375" viewBox="0 0 375 375" height="375" version="1.0"><defs><g id="b"><path d="M 27.875 0 L 26.40625 -18.375 L 26.21875 -18.375 L 19.875 -0.1875 L 15.65625 -0.1875 L 9.3125 -18.375 L 9.125 -18.375 L 7.65625 0 L 0.59375 0 L 3.375 -30.984375 L 10.890625 -30.984375 L 17.765625 -13.109375 L 24.640625 -30.984375 L 32.15625 -30.984375 L 34.9375 0 Z M 27.875 0"/></g><g id="c"><path d="M 0.859375 -15.515625 C 0.859375 -19.992188 2.382812 -23.785156 5.4375 -26.890625 C 8.5 -29.992188 12.179688 -31.546875 16.484375 -31.546875 C 20.816406 -31.546875 24.5 -30 27.53125 -26.90625 C 30.5625 -23.820312 32.078125 -20.023438 32.078125 -15.515625 C 32.078125 -10.984375 30.585938 -7.171875 27.609375 -4.078125 C 24.628906 -0.984375 20.921875 0.5625 16.484375 0.5625 C 11.953125 0.5625 8.210938 -0.96875 5.265625 -4.03125 C 2.328125 -7.101562 0.859375 -10.929688 0.859375 -15.515625 Z M 8.484375 -15.515625 C 8.484375 -13.890625 8.734375 -12.40625 9.234375 -11.0625 C 9.734375 -9.71875 10.609375 -8.582031 11.859375 -7.65625 C 13.117188 -6.726562 14.660156 -6.265625 16.484375 -6.265625 C 19.117188 -6.265625 21.101562 -7.164062 22.4375 -8.96875 C 23.78125 -10.78125 24.453125 -12.960938 24.453125 -15.515625 C 24.453125 -18.046875 23.769531 -20.21875 22.40625 -22.03125 C 21.039062 -23.84375 19.066406 -24.75 16.484375 -24.75 C 13.929688 -24.75 11.957031 -23.84375 10.5625 -22.03125 C 9.175781 -20.21875 8.484375 -18.046875 8.484375 -15.515625 Z M 8.484375 -15.515625"/></g><g id="d"><path d="M 11.9375 0 L -1.046875 -30.984375 L 6.90625 -30.984375 L 14.71875 -10.625 L 22.53125 -30.984375 L 30.5 -30.984375 L 17.5 0 Z M 11.9375 0"/></g><g id="e"><path d="M 9.3125 -30.984375 L 9.3125 0 L 2.25 0 L 2.25 -30.984375 Z M 9.3125 -30.984375"/></g><g id="f"><path d="M 19.984375 -30.984375 L 19.984375 -24.796875 L 9.3125 -24.796875 L 9.3125 -18.625 L 19.53125 -18.625 L 19.53125 -12.4375 L 9.3125 -12.4375 L 9.3125 -6.203125 L 19.984375 -6.203125 L 19.984375 0 L 2.25 0 L 2.25 -30.984375 Z M 19.984375 -30.984375"/></g><g id="g"><path d="M 2.25 -30.984375 L 13.328125 -30.984375 C 16.304688 -30.984375 18.734375 -30.1875 20.609375 -28.59375 C 22.492188 -27.007812 23.4375 -24.738281 23.4375 -21.78125 C 23.4375 -19.507812 22.863281 -17.601562 21.71875 -16.0625 C 20.582031 -14.519531 19.039062 -13.4375 17.09375 -12.8125 L 27.765625 0 L 18.78125 0 L 9.3125 -12.25 L 9.3125 0 L 2.25 0 Z M 9.3125 -17.234375 L 10.140625 -17.234375 C 10.796875 -17.234375 11.347656 -17.242188 11.796875 -17.265625 C 12.242188 -17.296875 12.753906 -17.382812 13.328125 -17.53125 C 13.910156 -17.6875 14.375 -17.898438 14.71875 -18.171875 C 15.070312 -18.453125 15.375 -18.851562 15.625 -19.375 C 15.875 -19.90625 16 -20.546875 16 -21.296875 C 16 -22.046875 15.875 -22.679688 15.625 -23.203125 C 15.375 -23.734375 15.070312 -24.132812 14.71875 -24.40625 C 14.375 -24.6875 13.910156 -24.898438 13.328125 -25.046875 C 12.753906 -25.203125 12.242188 -25.289062 11.796875 -25.3125 C 11.347656 -25.34375 10.796875 -25.359375 10.140625 -25.359375 L 9.3125 -25.359375 Z M 9.3125 -17.234375"/></g><g id="h"><path d="M 26.03125 0 L 21.078125 -17.390625 L 16.109375 0 L 8.265625 0 L -0.5625 -30.984375 L 7.28125 -30.984375 L 12.578125 -9.734375 L 12.765625 -9.734375 L 18.40625 -30.984375 L 23.734375 -30.984375 L 29.375 -9.734375 L 29.5625 -9.734375 L 34.859375 -30.984375 L 42.671875 -30.984375 L 33.84375 0 Z M 26.03125 0"/></g><g id="i"><path d="M 6.53125 -8.03125 C 7.738281 -8.03125 8.757812 -7.609375 9.59375 -6.765625 C 10.4375 -5.929688 10.859375 -4.914062 10.859375 -3.71875 C 10.859375 -2.539062 10.4375 -1.53125 9.59375 -0.6875 C 8.757812 0.144531 7.738281 0.5625 6.53125 0.5625 C 5.351562 0.5625 4.34375 0.144531 3.5 -0.6875 C 2.664062 -1.53125 2.25 -2.539062 2.25 -3.71875 C 2.25 -4.914062 2.664062 -5.929688 3.5 -6.765625 C 4.34375 -7.609375 5.351562 -8.03125 6.53125 -8.03125 Z M 6.53125 -8.03125"/></g><clipPath id="a"><path d="M 76.773438 133.015625 L 148.773438 133.015625 L 148.773438 241.765625 L 76.773438 241.765625 Z M 76.773438 133.015625"/></clipPath></defs><g clip-path="url(#a)"><path d="M 111.015625 225.734375 C 111.617188 225.734375 112.101562 225.25 112.101562 224.648438 L 112.101562 184.96875 L 132.3125 232.949219 C 132.488281 233.367188 132.890625 233.617188 133.3125 233.617188 C 133.453125 233.617188 133.597656 233.585938 133.734375 233.53125 C 134.289062 233.296875 134.546875 232.660156 134.316406 232.109375 L 112.652344 180.675781 L 120.855469 180.675781 C 121.457031 180.675781 121.941406 180.191406 121.941406 179.59375 C 121.941406 178.992188 121.457031 178.507812 120.855469 178.507812 L 101.175781 178.507812 C 100.578125 178.507812 100.089844 178.992188 100.089844 179.59375 C 100.089844 180.191406 100.578125 180.675781 101.175781 180.675781 L 109.382812 180.675781 L 87.71875 232.109375 C 87.484375 232.660156 87.742188 233.296875 88.296875 233.53125 C 88.433594 233.585938 88.578125 233.617188 88.71875 233.617188 C 89.140625 233.617188 89.542969 233.367188 89.71875 232.949219 L 109.929688 184.96875 L 109.929688 224.648438 C 109.929688 225.25 110.417969 225.734375 111.015625 225.734375 Z M 133.863281 148.136719 C 133.863281 145.730469 131.90625 143.777344 129.496094 143.777344 C 127.085938 143.777344 125.132812 145.730469 125.132812 148.136719 C 125.132812 150.542969 127.085938 152.496094 129.496094 152.496094 C 131.90625 152.496094 133.863281 150.542969 133.863281 148.136719 Z M 111.015625 141.164062 C 104.707031 141.164062 99.59375 146.273438 99.59375 152.574219 C 93.234375 152.574219 88.089844 157.761719 88.171875 164.132812 C 88.253906 170.402344 93.484375 175.390625 99.761719 175.390625 L 122.269531 175.390625 C 128.546875 175.390625 133.777344 170.402344 133.859375 164.132812 C 133.941406 157.761719 128.796875 152.574219 122.4375 152.574219 C 122.4375 146.273438 117.324219 141.164062 111.015625 141.164062 Z M 148.371094 152.789062 L 135.984375 161.535156 C 136.128906 162.316406 136.199219 163.121094 136.199219 163.945312 C 136.199219 164.765625 136.128906 165.570312 135.984375 166.351562 L 148.371094 175.097656 C 148.542969 175.222656 148.78125 175.097656 148.78125 174.886719 L 148.78125 153 C 148.78125 152.789062 148.542969 152.664062 148.371094 152.789062 Z M 146.050781 180.527344 L 146.050781 240.722656 C 146.050781 241.277344 145.601562 241.726562 145.046875 241.726562 L 77.78125 241.726562 C 77.226562 241.726562 76.777344 241.277344 76.777344 240.722656 L 76.777344 134.054688 C 76.777344 133.503906 77.226562 133.054688 77.78125 133.054688 L 145.046875 133.054688 C 145.601562 133.054688 146.050781 133.503906 146.050781 134.054688 L 146.050781 145.648438 C 146.050781 146.203125 145.601562 146.652344 145.046875 146.652344 C 144.496094 146.652344 144.046875 146.203125 144.046875 145.648438 L 144.046875 135.058594 L 78.78125 135.058594 L 78.78125 239.722656 L 144.046875 239.722656 L 144.046875 180.527344 C 144.046875 179.976562 144.496094 179.527344 145.046875 179.527344 C 145.601562 179.527344 146.050781 179.976562 146.050781 180.527344"/></g><g><use x="161.907" y="174.184" xmlns:xlink="http://www.w3.org/1999/xlink" xlink:href="#b" xlink:type="simple" xlink:actuate="onLoad" xlink:show="embed"/></g><g><use x="198.156" y="174.184" xmlns:xlink="http://www.w3.org/1999/xlink" xlink:href="#c" xlink:type="simple" xlink:actuate="onLoad" xlink:show="embed"/></g><g><use x="231.812" y="174.184" xmlns:xlink="http://www.w3.org/1999/xlink" xlink:href="#d" xlink:type="simple" xlink:actuate="onLoad" xlink:show="embed"/></g><g><use x="261.975" y="174.184" xmlns:xlink="http://www.w3.org/1999/xlink" xlink:href="#e" xlink:type="simple" xlink:actuate="onLoad" xlink:show="embed"/></g><g><use x="274.258" y="174.184" xmlns:xlink="http://www.w3.org/1999/xlink" xlink:href="#f" xlink:type="simple" xlink:actuate="onLoad" xlink:show="embed"/></g><g><use x="161.907" y="220.447" xmlns:xlink="http://www.w3.org/1999/xlink" xlink:href="#g" xlink:type="simple" xlink:actuate="onLoad" xlink:show="embed"/></g><g><use x="189.516" y="220.447" xmlns:xlink="http://www.w3.org/1999/xlink" xlink:href="#f" xlink:type="simple" xlink:actuate="onLoad" xlink:show="embed"/></g><g><use x="212.016" y="220.447" xmlns:xlink="http://www.w3.org/1999/xlink" xlink:href="#d" xlink:type="simple" xlink:actuate="onLoad" xlink:show="embed"/></g><g><use x="242.179" y="220.447" xmlns:xlink="http://www.w3.org/1999/xlink" xlink:href="#e" xlink:type="simple" xlink:actuate="onLoad" xlink:show="embed"/></g><g><use x="254.463" y="220.447" xmlns:xlink="http://www.w3.org/1999/xlink" xlink:href="#f" xlink:type="simple" xlink:actuate="onLoad" xlink:show="embed"/></g><g><use x="276.963" y="220.447" xmlns:xlink="http://www.w3.org/1999/xlink" xlink:href="#h" xlink:type="simple" xlink:actuate="onLoad" xlink:show="embed"/></g><g><use x="319.785" y="220.447" xmlns:xlink="http://www.w3.org/1999/xlink" xlink:href="#i" xlink:type="simple" xlink:actuate="onLoad" xlink:show="embed"/></g></svg>